<svg aria-hidden="true" style="position: absolute; width: 0; height: 0; overflow: hidden;" version="1.1" xmlns="http://www.w3.org/2000/svg" xmlns:xlink="http://www.w3.org/1999/xlink">
<defs>
<symbol id="icon-search" viewBox="0 0 32 32">
<title>search</title>
<path d="M31.238 30.977l-8.977-9.336c2.29-2.296 3.708-5.462 3.708-8.954 0-6.996-5.691-12.687-12.687-12.687s-12.687 5.691-12.687 12.687 5.691 12.687 12.687 12.687c3.071 0 5.889-1.098 8.086-2.919l8.999 9.359c0.118 0.124 0.277 0.185 0.436 0.185 0.151 0 0.301-0.056 0.419-0.169 0.24-0.231 0.248-0.614 0.017-0.854zM13.281 24.166c-6.33 0-11.479-5.149-11.479-11.479s5.149-11.479 11.479-11.479 11.479 5.149 11.479 11.479-5.15 11.479-11.479 11.479z"></path>
</symbol>
<symbol id="icon-back" viewBox="0 0 32 32">
<title>back</title>
<path d="M31.51 16.49h-31.019c-0.271 0-0.49-0.22-0.49-0.49s0.22-0.49 0.49-0.49h31.019c0.271 0 0.49 0.22 0.49 0.49s-0.22 0.49-0.49 0.49z"></path>
<path d="M12.783 28.782c-0.126 0-0.251-0.048-0.347-0.143l-12.293-12.294c-0.091-0.092-0.143-0.217-0.143-0.347s0.052-0.255 0.143-0.347l12.294-12.288c0.191-0.191 0.502-0.191 0.693 0s0.191 0.502 0 0.693l-11.947 11.942 11.947 11.947c0.191 0.191 0.191 0.502 0 0.693-0.096 0.096-0.222 0.144-0.347 0.144z"></path>
</symbol>
<symbol id="icon-cancel" viewBox="0 0 32 32">
<title>cancel</title>
<path d="M14.47 15.893l-14.164 14.164c-0.394 0.393-0.394 1.031 0 1.425 0.197 0.197 0.455 0.295 0.712 0.295s0.516-0.098 0.712-0.295l14.271-14.27 14.271 14.27c0.197 0.197 0.454 0.295 0.712 0.295s0.515-0.098 0.712-0.295c0.394-0.393 0.394-1.031 0-1.425l-14.163-14.164 14.173-14.174c0.394-0.393 0.394-1.031 0-1.425s-1.031-0.393-1.424 0l-14.279 14.28-14.281-14.28c-0.393-0.393-1.030-0.393-1.424 0s-0.394 1.031 0 1.425l14.174 14.174z"></path>
</symbol>
<symbol id="icon-reset" viewBox="0 0 32 32">
<title>reset</title>
<path d="M25.86 16.032c0-4.487-3.637-8.124-8.124-8.124s-8.124 3.637-8.124 8.124c0 4.487 3.637 8.124 8.124 8.124 4.485-0.005 8.119-3.639 8.124-8.124zM10.671 16.032c0-3.902 3.163-7.066 7.066-7.066s7.065 3.163 7.065 7.066-3.163 7.066-7.065 7.066c-3.9-0.004-7.061-3.165-7.066-7.066z"></path>
<path d="M21.222 16.693c0-0.292-0.237-0.529-0.529-0.529h-2.84v-3.932c0-0.292-0.237-0.529-0.529-0.529s-0.529 0.237-0.529 0.529v4.434c0 0.293 0.228 0.557 0.52 0.557h3.378c0.292 0 0.529-0.237 0.529-0.529z"></path>
<path d="M17.737 1.769c-6.932 0.003-12.859 4.987-14.052 11.816h-3.155c-0.194-0.002-0.373 0.104-0.466 0.275s-0.084 0.378 0.023 0.54l3.855 5.877c0.098 0.149 0.264 0.239 0.443 0.239s0.345-0.090 0.442-0.239l3.855-5.878c0.106-0.162 0.115-0.369 0.022-0.539s-0.271-0.275-0.465-0.274h-3.48c1.18-6.237 6.629-10.754 12.977-10.755 7.281 0 13.205 5.923 13.205 13.204s-5.924 13.204-13.205 13.204c-0.293 0-0.529 0.237-0.529 0.529s0.237 0.529 0.529 0.529c5.769 0 10.97-3.475 13.178-8.805s0.987-11.465-3.092-15.544c-2.669-2.684-6.301-4.188-10.085-4.178zM4.385 19.026l-2.875-4.384h5.75z"></path>
</symbol>
<symbol id="icon-download" viewBox="0 0 32 32">
<title>download</title>
<path d="M30.038 21.337c-0.706 0-1.275 0.569-1.275 1.275v6.15h-25.525v-6.15c0-0.706-0.569-1.275-1.275-1.275s-1.275 0.569-1.275 1.275v7.425c0 0.706 0.569 1.275 1.275 1.275h28.075c0.706 0 1.275-0.569 1.275-1.275v-7.425c0-0.706-0.569-1.275-1.275-1.275z"></path>
<path d="M15.063 22.85c0.719 0.725 1.6 0.325 1.869 0l7.331-7.887c0.481-0.519 0.45-1.325-0.069-1.806s-1.325-0.45-1.8 0.069l-5.119 5.506v-16.575c0-0.706-0.569-1.275-1.275-1.275s-1.275 0.569-1.275 1.275v16.581l-5.119-5.506c-0.481-0.519-1.287-0.544-1.806-0.069-0.519 0.481-0.544 1.287-0.069 1.806l7.331 7.881z"></path>
</symbol>
<symbol id="icon-dustbin" viewBox="0 0 32 32">
<title>dustbin</title>
<path d="M25.833 9.735c0-0.276 0.224-0.5 0.5-0.5s0.5 0.225 0.5 0.5v19.181c0 0.847-0.348 1.618-0.906 2.177-0.558 0.558-1.33 0.906-2.177 0.906h-15.5c-0.847 0-1.62-0.348-2.177-0.906-0.558-0.558-0.906-1.329-0.906-2.177v-19.181c0-0.276 0.224-0.5 0.5-0.5s0.5 0.225 0.5 0.5v19.181c0 0.571 0.235 1.093 0.613 1.47s0.899 0.614 1.47 0.614h15.5c0.571 0 1.092-0.236 1.469-0.614 0.378-0.378 0.613-0.899 0.613-1.469v-19.182h0.002z"></path>
<path d="M12.271 27.625c0 0.276-0.224 0.5-0.5 0.5s-0.5-0.224-0.5-0.5v-17.76c0-0.276 0.224-0.5 0.5-0.5s0.5 0.224 0.5 0.5v17.76z"></path>
<path d="M16.5 27.625c0 0.276-0.224 0.5-0.5 0.5s-0.5-0.224-0.5-0.5v-17.76c0-0.276 0.224-0.5 0.5-0.5s0.5 0.224 0.5 0.5v17.76z"></path>
<path d="M20.73 27.625c0 0.276-0.224 0.5-0.5 0.5s-0.5-0.224-0.5-0.5v-17.76c0-0.276 0.224-0.5 0.5-0.5s0.5 0.224 0.5 0.5v17.76z"></path>
<path d="M11.979 3.083c0 0.276-0.224 0.5-0.5 0.5s-0.5-0.224-0.5-0.5c0-0.849 0.347-1.62 0.905-2.178s1.329-0.905 2.178-0.905h3.875c0.848 0 1.619 0.348 2.177 0.906s0.906 1.331 0.906 2.177c0 0.276-0.224 0.5-0.5 0.5s-0.5-0.224-0.5-0.5c0-0.571-0.235-1.093-0.613-1.47s-0.899-0.614-1.47-0.614h-3.875c-0.572 0-1.093 0.235-1.471 0.613-0.378 0.378-0.614 0.899-0.614 1.471z"></path>
<path d="M4.375 4.521h23.25c0.491 0 0.939 0.201 1.264 0.526l0.002 0.002c0.325 0.325 0.526 0.773 0.526 1.264v1.292c0 0.276-0.224 0.5-0.5 0.5h-25.833c-0.276 0-0.5-0.224-0.5-0.5v-1.292c0-0.49 0.201-0.939 0.526-1.264l0.002-0.002c0.325-0.325 0.774-0.526 1.264-0.526v0zM27.625 5.521h-23.25c-0.218 0-0.417 0.089-0.558 0.231l-0.002 0.002c-0.143 0.142-0.231 0.34-0.231 0.558v0.792h24.832v-0.792c0-0.218-0.089-0.417-0.231-0.558l-0.002-0.002c-0.142-0.143-0.34-0.231-0.557-0.231z"></path>
</symbol>
<symbol id="icon-exchange" viewBox="0 0 32 32">
<title>exchange</title>
<path d="M2.564 13.955c0.167 0.067 0.36 0.067 0.526-0.013l5.202-2.365c0.333-0.16 0.473-0.56 0.313-0.893-0.153-0.32-0.533-0.466-0.859-0.32l-3.644 1.659c1.739-5.202 6.581-8.68 12.157-8.68 5.842 0 10.951 3.903 12.423 9.492 0.093 0.353 0.46 0.566 0.813 0.473s0.566-0.46 0.473-0.813c-1.625-6.168-7.261-10.485-13.709-10.485-6.148 0-11.497 3.837-13.429 9.579l-1.532-3.83c-0.113-0.346-0.493-0.54-0.839-0.426s-0.54 0.493-0.426 0.839c0.007 0.027 0.020 0.053 0.033 0.080l2.125 5.329c0.067 0.167 0.2 0.306 0.373 0.373z"></path>
<path d="M31.959 23.787c-0.007-0.013-0.013-0.027-0.013-0.040l-2.125-5.329c-0.067-0.167-0.2-0.306-0.373-0.373-0.167-0.067-0.36-0.060-0.526 0.013l-5.202 2.365c-0.34 0.14-0.5 0.533-0.36 0.873s0.533 0.5 0.873 0.36c0.013-0.007 0.027-0.013 0.040-0.020l3.644-1.659c-1.752 5.202-6.601 8.68-12.17 8.68-5.842 0-10.951-3.903-12.423-9.492-0.093-0.353-0.46-0.566-0.813-0.473s-0.566 0.46-0.473 0.813c1.619 6.175 7.261 10.485 13.709 10.485 6.148 0 11.491-3.837 13.429-9.579l1.532 3.83c0.127 0.346 0.506 0.526 0.853 0.4s0.526-0.506 0.4-0.853z"></path>
</symbol>
<symbol id="icon-export" viewBox="0 0 32 32">
<title>export</title>
<path d="M16.545 22.374c0.281 0.131 0.614 0.091 0.849-0.105l12.617-10.449c0.183-0.15 0.287-0.379 0.287-0.614 0-0.242-0.105-0.464-0.294-0.614l-12.61-10.41c-0.242-0.196-0.568-0.242-0.849-0.104-0.281 0.131-0.457 0.411-0.457 0.725v5.466c-14.465 0.522-14.406 11.494-14.38 16.809v0.633c0 0.366 0.242 0.679 0.594 0.771 0.065 0.020 0.137 0.026 0.202 0.026 0.281 0 0.549-0.15 0.699-0.405 4.271-7.523 7.784-7.889 12.885-7.908v5.453c0 0.307 0.176 0.588 0.457 0.725zM3.321 20.892c0.072-2.318 0.379-5.081 1.646-7.419 2.011-3.722 5.91-5.564 11.925-5.623 0.438-0.007 0.79-0.359 0.79-0.797v-4.558l10.56 8.712-10.553 8.738v-4.552c0-0.209-0.085-0.418-0.235-0.568s-0.353-0.235-0.568-0.235c-5.597 0.007-9.456 0.34-13.564 6.302z"></path>
<path d="M30.142 31.203v-14.759c0-0.444-0.359-0.803-0.803-0.803s-0.803 0.359-0.803 0.803v13.956h-25.227v-2.717c0-0.444-0.359-0.803-0.803-0.803s-0.803 0.359-0.803 0.803v3.513c0 0.444 0.359 0.803 0.803 0.803h26.834c0.444 0 0.803-0.359 0.803-0.797z"></path>
</symbol>
<symbol id="icon-filter" viewBox="0 0 32 32">
<title>filter</title>
<path d="M30.010 2.863h-28.020c-1.097 0-1.99 0.893-1.99 1.99v2.342c0 1.097 0.893 1.99 1.99 1.99h0.932l10.285 10.285v9.004c0 0.268 0.162 0.51 0.409 0.613 0.082 0.034 0.168 0.050 0.254 0.050 0.173 0 0.342-0.067 0.469-0.194l4.285-4.285c0.124-0.124 0.194-0.293 0.194-0.469v-4.719l10.285-10.285h0.907c1.097 0 1.99-0.893 1.99-1.99v-2.342c-0-1.097-0.893-1.99-1.99-1.99zM17.686 18.726c-0.131 0.131-0.195 0.303-0.194 0.475v4.713l-2.958 2.958v-7.675c0-0.17-0.064-0.341-0.194-0.471l-9.541-9.541h22.429l-9.541 9.541zM30.673 7.195c0 0.366-0.298 0.663-0.663 0.663h-28.020c-0.366 0-0.663-0.298-0.663-0.663v-2.342c0-0.366 0.298-0.663 0.663-0.663h28.020c0.366 0 0.663 0.298 0.663 0.663v2.342z"></path>
</symbol>
<symbol id="icon-fuel" viewBox="0 0 32 32">
<title>fuel-station-pump</title>
<path d="M15.91 0h-14.011c-0.81 0-1.468 0.657-1.468 1.468v29.944h16.945v-29.944c0-0.81-0.654-1.468-1.466-1.468zM15.267 11.196h-12.723v-8.333h12.723v8.333zM24.11 32c-3.479 0-5.588-2.394-5.788-6.566-0.083-1.646 0.329-3.456 0.764-5.375 0.327-1.442 0.669-2.929 0.829-4.459 0.161-1.534-0.081-2.056-0.239-2.231-0.294-0.327-1.158-0.327-1.994-0.327h-0.411v-2.034h0.411c1.221 0 2.607 0 3.506 1 0.704 0.779 0.942 1.99 0.752 3.806-0.173 1.646-0.525 3.2-0.866 4.7-0.402 1.777-0.785 3.458-0.721 4.821 0.148 3.075 1.413 4.632 3.756 4.632 2.575 0 3.881-1.627 3.881-4.836 0-2.654-0.825-4.721-1.373-6.087l-0.214-0.55c-0.569-1.489-0.644-2.825-0.702-4.849-0.058-1.965-0.035-4.066 0.509-6.142 0.548-2.088 1.675-3.106 3.54-4.791l0.45-0.41 1.369 1.506-0.456 0.412c-1.744 1.578-2.54 2.298-2.933 3.801-0.479 1.825-0.494 3.753-0.444 5.565 0.057 1.975 0.134 3.033 0.571 4.183l0.204 0.517c0.571 1.421 1.517 3.796 1.517 6.842-0.002 4.306-2.214 6.875-5.917 6.875zM26.729 13.989l-0.052-2.035c0 0 1.577-0.041 2.471-0.051 0.021-0.361 0.021-0.924 0.021-1.514v-0.303c0-2.434-0.381-2.756-0.818-3.132-0.161-0.134-0.319-0.275-0.473-0.444l1.496-1.375c0.096 0.104 0.2 0.188 0.298 0.271 0.869 0.742 1.532 1.555 1.532 4.678v0.303c0 1.141 0.002 1.771-0.1 2.25-0.175 0.824-0.741 1.298-1.554 1.298-0.661 0-2.817 0.056-2.82 0.056z"></path>
</symbol>
<symbol id="icon-parking" viewBox="0 0 32 32">
<title>parked-car</title>
<path d="M22.693 13.863c-0.103 0-0.209 0.015-0.314 0.044l-1.194 0.329-1.24-3.021c-0.351-0.856-1.39-1.552-2.315-1.552h-11.607c-0.925 0-1.964 0.696-2.315 1.552l-1.239 3.017-1.18-0.325c-0.106-0.029-0.211-0.044-0.314-0.044-0.565 0-0.974 0.431-0.974 1.025v0.704c0 0.694 0.564 1.258 1.258 1.258h0.135l-0.2 0.488c-0.326 0.795-0.592 2.141-0.592 3.001v6.002c0 0.694 0.564 1.258 1.258 1.258h1.643c0.694 0 1.258-0.564 1.258-1.258v-1.499h14.132v1.499c0 0.694 0.564 1.258 1.258 1.258h1.642c0.694 0 1.258-0.564 1.258-1.258v-6.002c0-0.86-0.266-2.206-0.592-3.001l-0.2-0.488h0.152c0.694 0 1.258-0.564 1.258-1.258v-0.704c0-0.594-0.41-1.025-0.974-1.025zM3.37 16.167l1.876-4.57c0.21-0.512 0.835-0.931 1.388-0.931h10.382c0.553 0 1.178 0.419 1.388 0.931l1.876 4.57c0.21 0.512-0.071 0.931-0.624 0.931h-15.663c-0.554-0-0.834-0.419-0.624-0.931zM7.558 21.947c0 0.277-0.226 0.503-0.503 0.503h-3.564c-0.277 0-0.503-0.226-0.503-0.503v-1.71c0-0.277 0.226-0.503 0.503-0.503h3.564c0.277 0 0.503 0.226 0.503 0.503v1.71zM20.629 21.947c0 0.277-0.227 0.503-0.503 0.503h-3.564c-0.277 0-0.503-0.226-0.503-0.503v-1.71c0-0.277 0.227-0.503 0.503-0.503h3.564c0.277 0 0.503 0.226 0.503 0.503v1.71z"></path>
<path d="M30.427 4.402h-5.957c-0.867 0-1.573 0.706-1.573 1.573v5.957c0 0.867 0.706 1.573 1.573 1.573h2.392v13.371c0 0.324 0.263 0.587 0.587 0.587s0.587-0.263 0.587-0.587v-13.371h2.392c0.867 0 1.573-0.706 1.573-1.573v-5.957c0-0.867-0.706-1.573-1.573-1.573zM29.078 9.341c-0.343 0.308-0.847 0.465-1.5 0.465h-0.863c-0.104 0-0.188 0.084-0.188 0.188v1.455c0 0.158-0.129 0.287-0.287 0.287h-0.653c-0.158 0-0.287-0.129-0.287-0.287v-4.99c0-0.158 0.129-0.287 0.287-0.287h1.646c1.090 0 1.497 0.164 1.832 0.448 0.353 0.299 0.531 0.758 0.531 1.363-0 0.591-0.174 1.048-0.518 1.358z"></path>
<path d="M28.144 7.377c-0.159-0.12-0.441-0.181-0.837-0.181h-0.592c-0.104 0-0.188 0.084-0.188 0.188v1.196c0 0.103 0.084 0.188 0.188 0.188h0.355c0.13 0 0.341-0.010 0.469-0.021 0.125-0.011 0.476-0.062 0.605-0.16 0.155-0.117 0.233-0.32 0.233-0.602 0-0.285-0.079-0.489-0.233-0.606z"></path>
</symbol>
<symbol id="icon-circular-clockwise" viewBox="0 0 32 32">
<title>circular-clockwise</title>
<path d="M31.125 14.104c-0.104-0.65-0.715-1.093-1.365-0.989s-1.093 0.715-0.989 1.365c0.001 0.007 0.002 0.014 0.004 0.021 1.214 7.145-3.595 13.922-10.74 15.136s-13.922-3.595-15.136-10.74 3.595-13.922 10.74-15.136c4.394-0.746 8.867 0.788 11.877 4.076l-5.28 1.759c-0.625 0.208-0.962 0.883-0.755 1.507 0 0 0 0 0 0.001 0.208 0.625 0.883 0.962 1.507 0.755 0-0 0-0 0-0l7.152-2.384c0.487-0.162 0.815-0.618 0.815-1.131v-7.152c0-0.658-0.534-1.192-1.192-1.192s-1.192 0.534-1.192 1.192v4.354c-6.138-5.838-15.848-5.595-21.686 0.543s-5.595 15.848 0.543 21.686 15.848 5.595 21.686-0.543c3.329-3.5 4.815-8.365 4.010-13.128z"></path>
</symbol>
<symbol id="icon-circular-counter-clockwise" viewBox="0 0 32 32">
<title>circular-counter-clockwise</title>
<path d="M23.74 2h7.26c0.552 0 1-0.448 1-1s-0.448-1-1-1h-10c-0.121 0-1 0-1 1v10c0 0.552 0.448 1 1 1s1-0.448 1-1v-7.641c4.728 2.246 8 7.058 8 12.641 0 7.732-6.268 14-14 14s-14-6.268-14-14c0-7.051 5.218-12.868 12-13.841v-2.021c-7.89 0.986-14 7.704-14 15.862 0 8.837 7.163 16 16 16s16-7.163 16-16c0-6.028-3.336-11.272-8.26-14z"></path>
</symbol>
<symbol id="icon-flip-x" viewBox="0 0 32 32">
<title>flip-x</title>
<path d="M16 0c-0.518 0-0.938 0.42-0.938 0.938v4.375c0 0.518 0.42 0.938 0.938 0.938s0.938-0.42 0.938-0.938v-4.375c0-0.518-0.42-0.938-0.938-0.938z"></path>
<path d="M16 8.563c-0.518 0-0.938 0.42-0.938 0.938v4.375c0 0.518 0.42 0.938 0.938 0.938s0.938-0.42 0.938-0.938v-4.375c0-0.518-0.42-0.938-0.938-0.938z"></path>
<path d="M16 17.188c-0.518 0-0.938 0.42-0.938 0.938v4.375c0 0.518 0.42 0.938 0.938 0.938s0.938-0.42 0.938-0.938v-4.375c0-0.518-0.42-0.938-0.938-0.938z"></path>
<path d="M16 25.75c-0.518 0-0.938 0.42-0.938 0.938v4.375c0 0.518 0.42 0.938 0.938 0.938s0.938-0.42 0.938-0.938v-4.375c0-0.518-0.42-0.938-0.938-0.938z"></path>
<path d="M11.213 6.469l-7.5-2.303c-0.284-0.087-0.593-0.035-0.832 0.142s-0.38 0.457-0.38 0.754v21.875c0 0.297 0.141 0.577 0.38 0.754s0.549 0.229 0.832 0.142l7.5-2.303c0.394-0.121 0.662-0.484 0.662-0.896v-17.27c0-0.412-0.269-0.775-0.662-0.896zM10 23.942l-5.625 1.727v-19.338l5.625 1.727v15.884z"></path>
<path d="M29.12 4.309c-0.239-0.177-0.548-0.23-0.832-0.142l-7.5 2.303c-0.394 0.121-0.662 0.484-0.662 0.896v17.27c0 0.412 0.269 0.775 0.662 0.896l7.5 2.303c0.285 0.088 0.594 0.034 0.832-0.142s0.38-0.456 0.38-0.754v-21.875c0-0.297-0.141-0.577-0.38-0.754zM27.625 25.669l-5.625-1.727v-15.884l5.625-1.727v19.338z"></path>
</symbol>
<symbol id="icon-flip-y" viewBox="0 0 32 32">
<title>flip-y</title>
<path d="M31.063 15.063h-4.375c-0.518 0-0.938 0.42-0.938 0.938s0.42 0.938 0.938 0.938h4.375c0.518 0 0.938-0.42 0.938-0.938s-0.42-0.938-0.938-0.938z"></path>
<path d="M22.5 15.063h-4.375c-0.518 0-0.938 0.42-0.938 0.938s0.42 0.938 0.938 0.938h4.375c0.518 0 0.938-0.42 0.938-0.938s-0.42-0.938-0.938-0.938z"></path>
<path d="M13.875 15.063h-4.375c-0.518 0-0.938 0.42-0.938 0.938s0.42 0.938 0.938 0.938h4.375c0.518 0 0.938-0.42 0.938-0.938s-0.42-0.938-0.938-0.938z"></path>
<path d="M5.313 15.063h-4.375c-0.518 0-0.938 0.42-0.938 0.938s0.42 0.938 0.938 0.938h4.375c0.518 0 0.938-0.42 0.938-0.938s-0.42-0.938-0.938-0.938z"></path>
<path d="M27.834 10.662l-2.303-7.5c-0.121-0.394-0.484-0.662-0.896-0.662h-17.27c-0.412 0-0.775 0.269-0.896 0.662l-2.303 7.5c-0.087 0.284-0.035 0.593 0.142 0.832s0.457 0.38 0.754 0.38h21.875c0.297 0 0.577-0.141 0.754-0.38s0.23-0.548 0.142-0.832zM6.331 10l1.727-5.625h15.884l1.727 5.625h-19.338z"></path>
<path d="M27.691 20.505c-0.177-0.239-0.456-0.38-0.754-0.38h-21.875c-0.297 0-0.577 0.141-0.754 0.38s-0.229 0.548-0.142 0.832l2.303 7.5c0.121 0.394 0.484 0.662 0.896 0.662h17.27c0.412 0 0.775-0.269 0.896-0.662l2.303-7.5c0.087-0.284 0.035-0.593-0.142-0.832zM23.942 27.625h-15.884l-1.727-5.625h19.338l-1.727 5.625z"></path>
</symbol><symbol id="icon-arrow-first" viewBox="0 0 32 32">
<title>first</title>
<path d="M28.171 28.225c0.863 0.863 0.863 2.264 0 3.127s-2.263 0.864-3.127 0l-13.577-13.578c-0.431-0.432-0.647-0.997-0.647-1.563s0.216-1.132 0.647-1.563l13.577-13.578c0.864-0.864 2.264-0.864 3.127 0s0.863 2.264 0 3.127l-12.014 12.014 12.014 12.014zM7.552 0h-3.948c-0.234 0-0.423 0.189-0.423 0.423v30.49c0 0.234 0.189 0.423 0.423 0.423h3.948c0.234 0 0.423-0.189 0.423-0.423v-30.49c0-0.234-0.189-0.423-0.423-0.423z"></path>
</symbol>
<symbol id="icon-arrow-last" viewBox="0 0 32 32">
<title>navigate-to-end</title>
<path d="M15.842 16.211l-12.014-12.014c-0.863-0.863-0.863-2.264 0-3.127s2.263-0.864 3.127 0l13.578 13.578c0.431 0.432 0.647 0.997 0.647 1.563s-0.216 1.132-0.647 1.563l-13.578 13.578c-0.864 0.864-2.264 0.864-3.127 0s-0.863-2.264 0-3.127l12.014-12.014zM24.025 0.423v30.49c0 0.234 0.189 0.423 0.423 0.423h3.948c0.234 0 0.423-0.189 0.423-0.423v-30.49c0-0.234-0.189-0.423-0.423-0.423h-3.948c-0.234 0-0.423 0.189-0.423 0.423z"></path>
</symbol>
<symbol id="icon-arrow-next" viewBox="0 0 32 32">
<title>arrow-point-to-right</title>
<path d="M24.464 17.584l-13.759 13.759c-0.875 0.876-2.294 0.876-3.169 0s-0.875-2.294 0-3.169l12.175-12.175-12.175-12.174c-0.875-0.875-0.875-2.294 0-3.169s2.294-0.875 3.169 0l13.759 13.759c0.437 0.438 0.656 1.011 0.656 1.584s-0.219 1.147-0.656 1.584z"></path>
</symbol>
<symbol id="icon-arrow-prev" viewBox="0 0 32 32">
<title>last-track-left-arrow</title>
<path d="M12.333 16l12.131-12.065c0.906-0.9 0.906-2.36 0-3.26s-2.375-0.9-3.282 0l-13.654 13.579c-0.483 0.48-0.7 1.118-0.668 1.746-0.032 0.628 0.186 1.266 0.668 1.746l13.654 13.579c0.906 0.9 2.375 0.9 3.282 0s0.906-2.36 0-3.26l-12.131-12.065z"></path>
</symbol>
<symbol id="icon-plus" viewBox="0 0 32 32">
<title>plus</title>
<path d="M28.121 12.706h-8.959c-0.291 0-0.527-0.236-0.527-0.527v-8.959c0-1.455-1.18-2.635-2.635-2.635s-2.635 1.18-2.635 2.635v8.959c0 0.291-0.236 0.527-0.527 0.527h-8.959c-1.455 0-2.635 1.18-2.635 2.635s1.18 2.635 2.635 2.635h8.959c0.291 0 0.527 0.236 0.527 0.527v8.959c0 1.455 1.18 2.635 2.635 2.635s2.635-1.18 2.635-2.635v-8.959c0-0.291 0.236-0.527 0.527-0.527h8.959c1.455 0 2.635-1.18 2.635-2.635s-1.18-2.635-2.635-2.635z"></path>
</symbol>
<symbol id="icon-search" viewBox="0 0 32 32">
<title>search</title>
<path d="M12.8 23.988c2.729 0 5.209-0.967 7.144-2.605l8.682 8.682c0.198 0.198 0.447 0.298 0.719 0.298s0.521-0.099 0.719-0.298c0.397-0.397 0.397-1.042 0-1.439l-8.682-8.682c1.612-1.935 2.605-4.44 2.605-7.144 0-6.177-5.011-11.188-11.188-11.188-6.152 0-11.188 5.036-11.188 11.188 0 6.177 5.036 11.188 11.188 11.188zM12.8 3.647c5.060 0 9.153 4.118 9.153 9.153 0 5.060-4.093 9.153-9.153 9.153s-9.153-4.118-9.153-9.153c0-5.036 4.118-9.153 9.153-9.153z"></path>
</symbol>
</defs>
</svg>
