<svg aria-hidden="true" style="position: absolute; width: 0; height: 0; overflow: hidden;" version="1.1" xmlns="http://www.w3.org/2000/svg" xmlns:xlink="http://www.w3.org/1999/xlink">
<defs>
<symbol id="icon-back" viewBox="0 0 32 32">
<title>back</title>
<path d="M31.51 16.49h-31.019c-0.271 0-0.49-0.22-0.49-0.49s0.22-0.49 0.49-0.49h31.019c0.271 0 0.49 0.22 0.49 0.49s-0.22 0.49-0.49 0.49z"></path>
<path d="M12.783 28.782c-0.126 0-0.251-0.048-0.347-0.143l-12.293-12.294c-0.091-0.092-0.143-0.217-0.143-0.347s0.052-0.255 0.143-0.347l12.294-12.288c0.191-0.191 0.502-0.191 0.693 0s0.191 0.502 0 0.693l-11.947 11.942 11.947 11.947c0.191 0.191 0.191 0.502 0 0.693-0.096 0.096-0.222 0.144-0.347 0.144z"></path>
</symbol>
<symbol id="icon-cancel" viewBox="0 0 32 32">
<title>cancel</title>
<path d="M14.47 15.893l-14.164 14.164c-0.394 0.393-0.394 1.031 0 1.425 0.197 0.197 0.455 0.295 0.712 0.295s0.516-0.098 0.712-0.295l14.271-14.27 14.271 14.27c0.197 0.197 0.454 0.295 0.712 0.295s0.515-0.098 0.712-0.295c0.394-0.393 0.394-1.031 0-1.425l-14.163-14.164 14.173-14.174c0.394-0.393 0.394-1.031 0-1.425s-1.031-0.393-1.424 0l-14.279 14.28-14.281-14.28c-0.393-0.393-1.030-0.393-1.424 0s-0.394 1.031 0 1.425l14.174 14.174z"></path>
</symbol>
<symbol id="icon-download" viewBox="0 0 32 32">
<title>download</title>
<path d="M30.038 21.337c-0.706 0-1.275 0.569-1.275 1.275v6.15h-25.525v-6.15c0-0.706-0.569-1.275-1.275-1.275s-1.275 0.569-1.275 1.275v7.425c0 0.706 0.569 1.275 1.275 1.275h28.075c0.706 0 1.275-0.569 1.275-1.275v-7.425c0-0.706-0.569-1.275-1.275-1.275z"></path>
<path d="M15.063 22.85c0.719 0.725 1.6 0.325 1.869 0l7.331-7.887c0.481-0.519 0.45-1.325-0.069-1.806s-1.325-0.45-1.8 0.069l-5.119 5.506v-16.575c0-0.706-0.569-1.275-1.275-1.275s-1.275 0.569-1.275 1.275v16.581l-5.119-5.506c-0.481-0.519-1.287-0.544-1.806-0.069-0.519 0.481-0.544 1.287-0.069 1.806l7.331 7.881z"></path>
</symbol>
<symbol id="icon-dustbin" viewBox="0 0 32 32">
<title>dustbin</title>
<path d="M25.833 9.735c0-0.276 0.224-0.5 0.5-0.5s0.5 0.225 0.5 0.5v19.181c0 0.847-0.348 1.618-0.906 2.177-0.558 0.558-1.33 0.906-2.177 0.906h-15.5c-0.847 0-1.62-0.348-2.177-0.906-0.558-0.558-0.906-1.329-0.906-2.177v-19.181c0-0.276 0.224-0.5 0.5-0.5s0.5 0.225 0.5 0.5v19.181c0 0.571 0.235 1.093 0.613 1.47s0.899 0.614 1.47 0.614h15.5c0.571 0 1.092-0.236 1.469-0.614 0.378-0.378 0.613-0.899 0.613-1.469v-19.182h0.002z"></path>
<path d="M12.271 27.625c0 0.276-0.224 0.5-0.5 0.5s-0.5-0.224-0.5-0.5v-17.76c0-0.276 0.224-0.5 0.5-0.5s0.5 0.224 0.5 0.5v17.76z"></path>
<path d="M16.5 27.625c0 0.276-0.224 0.5-0.5 0.5s-0.5-0.224-0.5-0.5v-17.76c0-0.276 0.224-0.5 0.5-0.5s0.5 0.224 0.5 0.5v17.76z"></path>
<path d="M20.73 27.625c0 0.276-0.224 0.5-0.5 0.5s-0.5-0.224-0.5-0.5v-17.76c0-0.276 0.224-0.5 0.5-0.5s0.5 0.224 0.5 0.5v17.76z"></path>
<path d="M11.979 3.083c0 0.276-0.224 0.5-0.5 0.5s-0.5-0.224-0.5-0.5c0-0.849 0.347-1.62 0.905-2.178s1.329-0.905 2.178-0.905h3.875c0.848 0 1.619 0.348 2.177 0.906s0.906 1.331 0.906 2.177c0 0.276-0.224 0.5-0.5 0.5s-0.5-0.224-0.5-0.5c0-0.571-0.235-1.093-0.613-1.47s-0.899-0.614-1.47-0.614h-3.875c-0.572 0-1.093 0.235-1.471 0.613-0.378 0.378-0.614 0.899-0.614 1.471z"></path>
<path d="M4.375 4.521h23.25c0.491 0 0.939 0.201 1.264 0.526l0.002 0.002c0.325 0.325 0.526 0.773 0.526 1.264v1.292c0 0.276-0.224 0.5-0.5 0.5h-25.833c-0.276 0-0.5-0.224-0.5-0.5v-1.292c0-0.49 0.201-0.939 0.526-1.264l0.002-0.002c0.325-0.325 0.774-0.526 1.264-0.526v0zM27.625 5.521h-23.25c-0.218 0-0.417 0.089-0.558 0.231l-0.002 0.002c-0.143 0.142-0.231 0.34-0.231 0.558v0.792h24.832v-0.792c0-0.218-0.089-0.417-0.231-0.558l-0.002-0.002c-0.142-0.143-0.34-0.231-0.557-0.231z"></path>
</symbol>
<symbol id="icon-filter" viewBox="0 0 32 32">
<title>filter</title>
<path d="M30.010 2.863h-28.020c-1.097 0-1.99 0.893-1.99 1.99v2.342c0 1.097 0.893 1.99 1.99 1.99h0.932l10.285 10.285v9.004c0 0.268 0.162 0.51 0.409 0.613 0.082 0.034 0.168 0.050 0.254 0.050 0.173 0 0.342-0.067 0.469-0.194l4.285-4.285c0.124-0.124 0.194-0.293 0.194-0.469v-4.719l10.285-10.285h0.907c1.097 0 1.99-0.893 1.99-1.99v-2.342c-0-1.097-0.893-1.99-1.99-1.99zM17.686 18.726c-0.131 0.131-0.195 0.303-0.194 0.475v4.713l-2.958 2.958v-7.675c0-0.17-0.064-0.341-0.194-0.471l-9.541-9.541h22.429l-9.541 9.541zM30.673 7.195c0 0.366-0.298 0.663-0.663 0.663h-28.020c-0.366 0-0.663-0.298-0.663-0.663v-2.342c0-0.366 0.298-0.663 0.663-0.663h28.020c0.366 0 0.663 0.298 0.663 0.663v2.342z"></path>
</symbol>
<symbol id="icon-fuel" viewBox="0 0 32 32">
<title>fuel-station-pump</title>
<path d="M15.91 0h-14.011c-0.81 0-1.468 0.657-1.468 1.468v29.944h16.945v-29.944c0-0.81-0.654-1.468-1.466-1.468zM15.267 11.196h-12.723v-8.333h12.723v8.333zM24.11 32c-3.479 0-5.588-2.394-5.788-6.566-0.083-1.646 0.329-3.456 0.764-5.375 0.327-1.442 0.669-2.929 0.829-4.459 0.161-1.534-0.081-2.056-0.239-2.231-0.294-0.327-1.158-0.327-1.994-0.327h-0.411v-2.034h0.411c1.221 0 2.607 0 3.506 1 0.704 0.779 0.942 1.99 0.752 3.806-0.173 1.646-0.525 3.2-0.866 4.7-0.402 1.777-0.785 3.458-0.721 4.821 0.148 3.075 1.413 4.632 3.756 4.632 2.575 0 3.881-1.627 3.881-4.836 0-2.654-0.825-4.721-1.373-6.087l-0.214-0.55c-0.569-1.489-0.644-2.825-0.702-4.849-0.058-1.965-0.035-4.066 0.509-6.142 0.548-2.088 1.675-3.106 3.54-4.791l0.45-0.41 1.369 1.506-0.456 0.412c-1.744 1.578-2.54 2.298-2.933 3.801-0.479 1.825-0.494 3.753-0.444 5.565 0.057 1.975 0.134 3.033 0.571 4.183l0.204 0.517c0.571 1.421 1.517 3.796 1.517 6.842-0.002 4.306-2.214 6.875-5.917 6.875zM26.729 13.989l-0.052-2.035c0 0 1.577-0.041 2.471-0.051 0.021-0.361 0.021-0.924 0.021-1.514v-0.303c0-2.434-0.381-2.756-0.818-3.132-0.161-0.134-0.319-0.275-0.473-0.444l1.496-1.375c0.096 0.104 0.2 0.188 0.298 0.271 0.869 0.742 1.532 1.555 1.532 4.678v0.303c0 1.141 0.002 1.771-0.1 2.25-0.175 0.824-0.741 1.298-1.554 1.298-0.661 0-2.817 0.056-2.82 0.056z"></path>
</symbol>
<symbol id="icon-parking" viewBox="0 0 32 32">
<title>parked-car</title>
<path d="M22.693 13.863c-0.103 0-0.209 0.015-0.314 0.044l-1.194 0.329-1.24-3.021c-0.351-0.856-1.39-1.552-2.315-1.552h-11.607c-0.925 0-1.964 0.696-2.315 1.552l-1.239 3.017-1.18-0.325c-0.106-0.029-0.211-0.044-0.314-0.044-0.565 0-0.974 0.431-0.974 1.025v0.704c0 0.694 0.564 1.258 1.258 1.258h0.135l-0.2 0.488c-0.326 0.795-0.592 2.141-0.592 3.001v6.002c0 0.694 0.564 1.258 1.258 1.258h1.643c0.694 0 1.258-0.564 1.258-1.258v-1.499h14.132v1.499c0 0.694 0.564 1.258 1.258 1.258h1.642c0.694 0 1.258-0.564 1.258-1.258v-6.002c0-0.86-0.266-2.206-0.592-3.001l-0.2-0.488h0.152c0.694 0 1.258-0.564 1.258-1.258v-0.704c0-0.594-0.41-1.025-0.974-1.025zM3.37 16.167l1.876-4.57c0.21-0.512 0.835-0.931 1.388-0.931h10.382c0.553 0 1.178 0.419 1.388 0.931l1.876 4.57c0.21 0.512-0.071 0.931-0.624 0.931h-15.663c-0.554-0-0.834-0.419-0.624-0.931zM7.558 21.947c0 0.277-0.226 0.503-0.503 0.503h-3.564c-0.277 0-0.503-0.226-0.503-0.503v-1.71c0-0.277 0.226-0.503 0.503-0.503h3.564c0.277 0 0.503 0.226 0.503 0.503v1.71zM20.629 21.947c0 0.277-0.227 0.503-0.503 0.503h-3.564c-0.277 0-0.503-0.226-0.503-0.503v-1.71c0-0.277 0.227-0.503 0.503-0.503h3.564c0.277 0 0.503 0.226 0.503 0.503v1.71z"></path>
<path d="M30.427 4.402h-5.957c-0.867 0-1.573 0.706-1.573 1.573v5.957c0 0.867 0.706 1.573 1.573 1.573h2.392v13.371c0 0.324 0.263 0.587 0.587 0.587s0.587-0.263 0.587-0.587v-13.371h2.392c0.867 0 1.573-0.706 1.573-1.573v-5.957c0-0.867-0.706-1.573-1.573-1.573zM29.078 9.341c-0.343 0.308-0.847 0.465-1.5 0.465h-0.863c-0.104 0-0.188 0.084-0.188 0.188v1.455c0 0.158-0.129 0.287-0.287 0.287h-0.653c-0.158 0-0.287-0.129-0.287-0.287v-4.99c0-0.158 0.129-0.287 0.287-0.287h1.646c1.090 0 1.497 0.164 1.832 0.448 0.353 0.299 0.531 0.758 0.531 1.363-0 0.591-0.174 1.048-0.518 1.358z"></path>
<path d="M28.144 7.377c-0.159-0.12-0.441-0.181-0.837-0.181h-0.592c-0.104 0-0.188 0.084-0.188 0.188v1.196c0 0.103 0.084 0.188 0.188 0.188h0.355c0.13 0 0.341-0.010 0.469-0.021 0.125-0.011 0.476-0.062 0.605-0.16 0.155-0.117 0.233-0.32 0.233-0.602 0-0.285-0.079-0.489-0.233-0.606z"></path>
</symbol>
<symbol id="icon-circular-clockwise" viewBox="0 0 32 32">
<title>circular-clockwise</title>
<path d="M31.125 14.104c-0.104-0.65-0.715-1.093-1.365-0.989s-1.093 0.715-0.989 1.365c0.001 0.007 0.002 0.014 0.004 0.021 1.214 7.145-3.595 13.922-10.74 15.136s-13.922-3.595-15.136-10.74 3.595-13.922 10.74-15.136c4.394-0.746 8.867 0.788 11.877 4.076l-5.28 1.759c-0.625 0.208-0.962 0.883-0.755 1.507 0 0 0 0 0 0.001 0.208 0.625 0.883 0.962 1.507 0.755 0-0 0-0 0-0l7.152-2.384c0.487-0.162 0.815-0.618 0.815-1.131v-7.152c0-0.658-0.534-1.192-1.192-1.192s-1.192 0.534-1.192 1.192v4.354c-6.138-5.838-15.848-5.595-21.686 0.543s-5.595 15.848 0.543 21.686 15.848 5.595 21.686-0.543c3.329-3.5 4.815-8.365 4.010-13.128z"></path>
</symbol>
<symbol id="icon-circular-counter-clockwise" viewBox="0 0 32 32">
<title>circular-counter-clockwise</title>
<path d="M23.74 2h7.26c0.552 0 1-0.448 1-1s-0.448-1-1-1h-10c-0.121 0-1 0-1 1v10c0 0.552 0.448 1 1 1s1-0.448 1-1v-7.641c4.728 2.246 8 7.058 8 12.641 0 7.732-6.268 14-14 14s-14-6.268-14-14c0-7.051 5.218-12.868 12-13.841v-2.021c-7.89 0.986-14 7.704-14 15.862 0 8.837 7.163 16 16 16s16-7.163 16-16c0-6.028-3.336-11.272-8.26-14z"></path>
</symbol>
<symbol id="icon-flip-x" viewBox="0 0 32 32">
<title>flip-x</title>
<path d="M16 0c-0.518 0-0.938 0.42-0.938 0.938v4.375c0 0.518 0.42 0.938 0.938 0.938s0.938-0.42 0.938-0.938v-4.375c0-0.518-0.42-0.938-0.938-0.938z"></path>
<path d="M16 8.563c-0.518 0-0.938 0.42-0.938 0.938v4.375c0 0.518 0.42 0.938 0.938 0.938s0.938-0.42 0.938-0.938v-4.375c0-0.518-0.42-0.938-0.938-0.938z"></path>
<path d="M16 17.188c-0.518 0-0.938 0.42-0.938 0.938v4.375c0 0.518 0.42 0.938 0.938 0.938s0.938-0.42 0.938-0.938v-4.375c0-0.518-0.42-0.938-0.938-0.938z"></path>
<path d="M16 25.75c-0.518 0-0.938 0.42-0.938 0.938v4.375c0 0.518 0.42 0.938 0.938 0.938s0.938-0.42 0.938-0.938v-4.375c0-0.518-0.42-0.938-0.938-0.938z"></path>
<path d="M11.213 6.469l-7.5-2.303c-0.284-0.087-0.593-0.035-0.832 0.142s-0.38 0.457-0.38 0.754v21.875c0 0.297 0.141 0.577 0.38 0.754s0.549 0.229 0.832 0.142l7.5-2.303c0.394-0.121 0.662-0.484 0.662-0.896v-17.27c0-0.412-0.269-0.775-0.662-0.896zM10 23.942l-5.625 1.727v-19.338l5.625 1.727v15.884z"></path>
<path d="M29.12 4.309c-0.239-0.177-0.548-0.23-0.832-0.142l-7.5 2.303c-0.394 0.121-0.662 0.484-0.662 0.896v17.27c0 0.412 0.269 0.775 0.662 0.896l7.5 2.303c0.285 0.088 0.594 0.034 0.832-0.142s0.38-0.456 0.38-0.754v-21.875c0-0.297-0.141-0.577-0.38-0.754zM27.625 25.669l-5.625-1.727v-15.884l5.625-1.727v19.338z"></path>
</symbol>
<symbol id="icon-flip-y" viewBox="0 0 32 32">
<title>flip-y</title>
<path d="M31.063 15.063h-4.375c-0.518 0-0.938 0.42-0.938 0.938s0.42 0.938 0.938 0.938h4.375c0.518 0 0.938-0.42 0.938-0.938s-0.42-0.938-0.938-0.938z"></path>
<path d="M22.5 15.063h-4.375c-0.518 0-0.938 0.42-0.938 0.938s0.42 0.938 0.938 0.938h4.375c0.518 0 0.938-0.42 0.938-0.938s-0.42-0.938-0.938-0.938z"></path>
<path d="M13.875 15.063h-4.375c-0.518 0-0.938 0.42-0.938 0.938s0.42 0.938 0.938 0.938h4.375c0.518 0 0.938-0.42 0.938-0.938s-0.42-0.938-0.938-0.938z"></path>
<path d="M5.313 15.063h-4.375c-0.518 0-0.938 0.42-0.938 0.938s0.42 0.938 0.938 0.938h4.375c0.518 0 0.938-0.42 0.938-0.938s-0.42-0.938-0.938-0.938z"></path>
<path d="M27.834 10.662l-2.303-7.5c-0.121-0.394-0.484-0.662-0.896-0.662h-17.27c-0.412 0-0.775 0.269-0.896 0.662l-2.303 7.5c-0.087 0.284-0.035 0.593 0.142 0.832s0.457 0.38 0.754 0.38h21.875c0.297 0 0.577-0.141 0.754-0.38s0.23-0.548 0.142-0.832zM6.331 10l1.727-5.625h15.884l1.727 5.625h-19.338z"></path>
<path d="M27.691 20.505c-0.177-0.239-0.456-0.38-0.754-0.38h-21.875c-0.297 0-0.577 0.141-0.754 0.38s-0.229 0.548-0.142 0.832l2.303 7.5c0.121 0.394 0.484 0.662 0.896 0.662h17.27c0.412 0 0.775-0.269 0.896-0.662l2.303-7.5c0.087-0.284 0.035-0.593-0.142-0.832zM23.942 27.625h-15.884l-1.727-5.625h19.338l-1.727 5.625z"></path>
</symbol><symbol id="icon-arrow-first" viewBox="0 0 32 32">
<title>first</title>
<path d="M28.171 28.225c0.863 0.863 0.863 2.264 0 3.127s-2.263 0.864-3.127 0l-13.577-13.578c-0.431-0.432-0.647-0.997-0.647-1.563s0.216-1.132 0.647-1.563l13.577-13.578c0.864-0.864 2.264-0.864 3.127 0s0.863 2.264 0 3.127l-12.014 12.014 12.014 12.014zM7.552 0h-3.948c-0.234 0-0.423 0.189-0.423 0.423v30.49c0 0.234 0.189 0.423 0.423 0.423h3.948c0.234 0 0.423-0.189 0.423-0.423v-30.49c0-0.234-0.189-0.423-0.423-0.423z"></path>
</symbol>
<symbol id="icon-arrow-last" viewBox="0 0 32 32">
<title>navigate-to-end</title>
<path d="M15.842 16.211l-12.014-12.014c-0.863-0.863-0.863-2.264 0-3.127s2.263-0.864 3.127 0l13.578 13.578c0.431 0.432 0.647 0.997 0.647 1.563s-0.216 1.132-0.647 1.563l-13.578 13.578c-0.864 0.864-2.264 0.864-3.127 0s-0.863-2.264 0-3.127l12.014-12.014zM24.025 0.423v30.49c0 0.234 0.189 0.423 0.423 0.423h3.948c0.234 0 0.423-0.189 0.423-0.423v-30.49c0-0.234-0.189-0.423-0.423-0.423h-3.948c-0.234 0-0.423 0.189-0.423 0.423z"></path>
</symbol>
<symbol id="icon-arrow-next" viewBox="0 0 32 32">
<title>arrow-point-to-right</title>
<path d="M24.464 17.584l-13.759 13.759c-0.875 0.876-2.294 0.876-3.169 0s-0.875-2.294 0-3.169l12.175-12.175-12.175-12.174c-0.875-0.875-0.875-2.294 0-3.169s2.294-0.875 3.169 0l13.759 13.759c0.437 0.438 0.656 1.011 0.656 1.584s-0.219 1.147-0.656 1.584z"></path>
</symbol>
<symbol id="icon-arrow-prev" viewBox="0 0 32 32">
<title>last-track-left-arrow</title>
<path d="M12.333 16l12.131-12.065c0.906-0.9 0.906-2.36 0-3.26s-2.375-0.9-3.282 0l-13.654 13.579c-0.483 0.48-0.7 1.118-0.668 1.746-0.032 0.628 0.186 1.266 0.668 1.746l13.654 13.579c0.906 0.9 2.375 0.9 3.282 0s0.906-2.36 0-3.26l-12.131-12.065z"></path>
</symbol>
<symbol id="icon-plus" viewBox="0 0 32 32">
<title>plus</title>
<path d="M28.121 12.706h-8.959c-0.291 0-0.527-0.236-0.527-0.527v-8.959c0-1.455-1.18-2.635-2.635-2.635s-2.635 1.18-2.635 2.635v8.959c0 0.291-0.236 0.527-0.527 0.527h-8.959c-1.455 0-2.635 1.18-2.635 2.635s1.18 2.635 2.635 2.635h8.959c0.291 0 0.527 0.236 0.527 0.527v8.959c0 1.455 1.18 2.635 2.635 2.635s2.635-1.18 2.635-2.635v-8.959c0-0.291 0.236-0.527 0.527-0.527h8.959c1.455 0 2.635-1.18 2.635-2.635s-1.18-2.635-2.635-2.635z"></path>
</symbol>
<symbol id="icon-search" viewBox="0 0 32 32">
<title>search</title>
<path d="M12.8 23.988c2.729 0 5.209-0.967 7.144-2.605l8.682 8.682c0.198 0.198 0.447 0.298 0.719 0.298s0.521-0.099 0.719-0.298c0.397-0.397 0.397-1.042 0-1.439l-8.682-8.682c1.612-1.935 2.605-4.44 2.605-7.144 0-6.177-5.011-11.188-11.188-11.188-6.152 0-11.188 5.036-11.188 11.188 0 6.177 5.036 11.188 11.188 11.188zM12.8 3.647c5.060 0 9.153 4.118 9.153 9.153 0 5.060-4.093 9.153-9.153 9.153s-9.153-4.118-9.153-9.153c0-5.036 4.118-9.153 9.153-9.153z"></path>
</symbol>
<symbol id="icon-next" viewBox="0 0 32 32">
<title>next</title>
<path d="M31.51 16.49h-31.019c-0.271 0-0.49-0.22-0.49-0.49s0.22-0.49 0.49-0.49h31.019c0.271 0 0.49 0.22 0.49 0.49s-0.22 0.49-0.49 0.49z"></path>
<path d="M19.217 28.782c-0.125 0-0.251-0.048-0.347-0.143-0.191-0.191-0.191-0.502 0-0.693l11.947-11.947-11.947-11.943c-0.191-0.191-0.191-0.502 0-0.693s0.502-0.191 0.693 0l12.293 12.289c0.092 0.092 0.143 0.217 0.143 0.347s-0.052 0.255-0.143 0.347l-12.293 12.292c-0.095 0.096-0.221 0.144-0.346 0.144z"></path>
</symbol>
<symbol id="icon-pills" viewBox="0 0 32 32">
<title>pills</title>
<path d="M5.449 5.231h8.157c0.001 0 0.002 0 0.003 0 0.578-0.002 1.047-0.472 1.047-1.050v-3.131c0-0.579-0.471-1.050-1.050-1.050h-8.152c-0.579 0-1.050 0.471-1.050 1.050v3.131c0 0.577 0.468 1.047 1.045 1.050z"></path>
<path d="M18.767 25.324v-11.419c0-1.673-1.361-3.034-3.034-3.034h-0.229c-1.514 0-2.745-1.232-2.745-2.745v-1.2h-6.492v1.2c0 1.514-1.232 2.745-2.745 2.745h-0.194c-1.673 0-3.034 1.361-3.034 3.034v0.848h12.247c0.468 0 0.848 0.379 0.848 0.848v8.852c0 0.468-0.38 0.848-0.848 0.848h-12.246v1.030c0 1.673 1.361 3.034 3.034 3.034h8.415c0.109-2.246 1.97-4.039 4.242-4.039h2.782z"></path>
<path d="M0.293 16.448h11.399v7.156h-11.399v-7.156z"></path>
<path d="M30.959 24.777l-4.261-4.261c-0.997-0.997-2.613-0.997-3.61 0s-0.997 2.613 0 3.609l4.261 4.261c0.997 0.997 2.613 0.997 3.609 0s0.997-2.613-0-3.609z"></path>
<path d="M22.119 26.895l-6.026-0c-1.41 0-2.552 1.143-2.552 2.552s1.143 2.552 2.552 2.552h6.026c1.41 0 2.552-1.143 2.552-2.552s-1.143-2.552-2.552-2.552z"></path>
</symbol>
<symbol id="icon-save" viewBox="0 0 32 32">
<title>save</title>
<path d="M26.066 0h-25.74v32h31.347v-26.393l-5.607-5.607zM23.184 1.306v9.143h-15.673v-9.143h15.673zM6.204 30.694v-12.408h18.939v12.408h-18.939zM30.367 30.694h-3.918v-13.714h-21.551v13.714h-3.265v-29.388h4.571v10.449h18.286v-10.449h1.036l4.842 4.842v24.546z"></path>
<path d="M8.816 21.551h4.571c0.361 0 0.653-0.292 0.653-0.653s-0.292-0.653-0.653-0.653h-4.571c-0.361 0-0.653 0.292-0.653 0.653s0.292 0.653 0.653 0.653z"></path>
<path d="M15.347 22.857h-6.531c-0.361 0-0.653 0.292-0.653 0.653s0.292 0.653 0.653 0.653h6.531c0.361 0 0.653-0.292 0.653-0.653s-0.292-0.653-0.653-0.653z"></path>
<path d="M16.842 23.047c-0.118 0.123-0.189 0.294-0.189 0.464s0.071 0.34 0.189 0.464c0.123 0.118 0.287 0.189 0.464 0.189 0.17 0 0.34-0.072 0.464-0.189 0.118-0.124 0.189-0.294 0.189-0.464s-0.072-0.34-0.189-0.464c-0.242-0.242-0.686-0.242-0.927 0z"></path>
<path d="M21.878 2.612h-3.918v6.531h3.918v-6.531zM20.571 7.837h-1.306v-3.918h1.306v3.918z"></path>
</symbol>
<symbol id="icon-traffic" viewBox="0 0 32 32">
<title>traffic</title>
<path d="M21.007 20.066l-1.477-7.781c-0.073-0.384-0.409-0.663-0.8-0.663h-14.959c-0.391 0-0.727 0.278-0.8 0.663l-1.476 7.781c-0.905 0.65-1.495 1.711-1.495 2.91v3.88c0 0.74 0.6 1.341 1.341 1.341h0.639v1.714c0 1.086 0.881 1.967 1.967 1.967s1.967-0.881 1.967-1.967v-1.714h10.676v1.714c0 1.086 0.881 1.967 1.967 1.967s1.967-0.881 1.967-1.967v-1.714h0.64c0.74 0 1.341-0.6 1.341-1.341v-3.88c-0-1.199-0.59-2.26-1.495-2.91zM3.89 25.921c-1.031 0-1.857-0.838-1.857-1.857 0-1.025 0.831-1.857 1.857-1.857 1.021 0 1.849 0.824 1.856 1.843 0 0.005 0 0.009 0 0.014-0 1.025-0.831 1.857-1.857 1.857zM16.366 16.097c-0.442 0-3.816 0-4.258 0-1.030 0-1.872 0.838-1.877 1.868l-0.007 1.43h-6.643c-0.102 0-0.204 0.005-0.304 0.014l1.168-6.157h8.3c-0.094 0.207-0.147 0.436-0.147 0.678 0 0.908 0.736 1.644 1.644 1.644s1.644-0.736 1.644-1.644c0-0.242-0.053-0.471-0.147-0.678h2.315l1.168 6.157c-0.21-0.018-0.251-0.014-0.975-0.014l-0.007-1.43c-0.005-1.030-0.847-1.868-1.877-1.868zM18.612 25.921c-1.025 0-1.857-0.831-1.857-1.857 0-0.005 0-0.009 0-0.014 0.007-1.019 0.835-1.843 1.856-1.843 1.025 0 1.857 0.831 1.857 1.857 0 1.019-0.826 1.857-1.857 1.857z"></path>
<path d="M22.351 11.507l-0.358 0.304c-0.309 0.263-0.417 0.693-0.269 1.070l0.664 1.692-0-0.324c-0.001-1.059 0.405-2.021 1.073-2.744l-1.11 0.001z"></path>
<path d="M29.385 11.501c0.658 0.71 1.053 1.639 1.076 2.653l1.322-2.934c-0.244 0.175-0.543 0.279-0.866 0.279l-1.532 0.001z"></path>
<path d="M27.951 1.763c0 0.906-0.734 1.64-1.64 1.64s-1.64-0.734-1.64-1.64c0-0.906 0.734-1.64 1.64-1.64s1.64 0.734 1.64 1.64z"></path>
<path d="M26.427 15.676c-0 0-0.001 0-0.001 0-0.545 0-0.987 0.443-0.986 0.988l0.003 3.708c0 0.545 0.442 0.986 0.987 0.986 0 0 0.001 0 0.001 0 0.545-0 0.987-0.443 0.986-0.988l-0.003-3.708c-0-0.545-0.442-0.986-0.987-0.986z"></path>
<path d="M27.551 11.349c0.25-0.212 0.429-0.478 0.529-0.774l2.694-0.002c0.595 0.389 1.372-0.15 1.202-0.849-0.389-1.598 0.083 0.34-0.769-3.165-0.040-0.165-0.132-0.312-0.262-0.421l-2.326-1.942c-0.064-0.053-0.284-0.157-0.389-0.174-0.23-0.038-3.749-0.001-3.818 0.008-0.183 0.011-0.275 0.059-0.429 0.2l-2.507 2.296c-0.137 0.126-0.226 0.296-0.25 0.481-0.304 2.325-0.202 1.544-0.373 2.858-0.093 0.71 0.734 1.165 1.285 0.715l2.628-0.002c0.111 0.316 0.298 0.58 0.53 0.773-1.163 0.454-1.981 1.585-1.979 2.899l0.003 3.446c0 0.387 0.314 0.705 0.706 0.705 0 0 0 0 0.001 0l0.488-0-0.001-1.734c-0.001-1.056 0.852-1.916 1.914-1.916h0.001c1.055 0 1.914 0.858 1.915 1.913l0.001 1.734 0.488-0c0.39-0 0.705-0.317 0.705-0.706v-0.003l-0.003-3.443c-0.001-1.292-0.8-2.435-1.983-2.895zM24.765 9.447l-2.262 0.002c0.102-0.783 0.060-0.463 0.255-1.951l1.468-1.344 0.005 2.32c0.492-0.702 1.303-1.141 2.191-1.142h0.002c0.78 0 1.501 0.339 1.999 0.898l-0.005-2.142 1.314 1.097c0.465 1.912 0.248 1.020 0.549 2.257l-2.201 0.002c-0.236-0.69-0.894-1.185-1.658-1.185-0.755 0.001-1.417 0.488-1.656 1.187zM26.423 10.834h-0.001c-0.454 0-0.823-0.369-0.823-0.823s0.369-0.824 0.823-0.824c0.453 0 0.823 0.369 0.823 0.823 0 0.455-0.368 0.823-0.823 0.824z"></path>
</symbol>
<symbol id="icon-down" viewBox="0 0 32 32">
<title>down-chevron</title>
<path d="M30.337 7.192l-14.337 14.29-14.337-14.29-1.663 1.669 16 15.948 16-15.948z"></path>
</symbol>
<symbol id="icon-up" viewBox="0 0 32 32">
<title>up-chevron</title>
<path d="M16 7.192l-16 15.948 1.663 1.669 14.337-14.29 14.337 14.29 1.663-1.669z"></path>
</symbol>
</defs>
</svg>
